<svg width="19" height="18" viewBox="0 0 19 18" fill="none" xmlns="http://www.w3.org/2000/svg">
<path d="M5.66785 13.0618V14.6945" stroke="#6D737A" stroke-width="1.08848" stroke-linecap="round" stroke-linejoin="round"/>
<path d="M13.2872 13.0618V14.6945" stroke="#6D737A" stroke-width="1.08848" stroke-linecap="round" stroke-linejoin="round"/>
<path d="M4.57935 7.07514V3.53757C4.57935 3.17672 4.72269 2.83065 4.97786 2.57548C5.23302 2.32032 5.57909 2.17697 5.93995 2.17697C6.3008 2.17697 6.64688 2.32032 6.90204 2.57548C7.1572 2.83065 7.30055 3.17672 7.30055 3.53757" stroke="#6D737A" stroke-width="1.08848" stroke-linecap="round" stroke-linejoin="round"/>
<path d="M14.3757 6.5309H10.0217V9.79635H14.3757V6.5309Z" stroke="#6D737A" stroke-width="1.08848" stroke-linecap="round" stroke-linejoin="round"/>
<path d="M14.3757 7.07513H16.5527C16.697 7.07513 16.8354 7.13247 16.9375 7.23454C17.0396 7.3366 17.0969 7.47503 17.0969 7.61938V9.79634C17.0969 10.6624 16.7529 11.493 16.1405 12.1054C15.5281 12.7178 14.6975 13.0618 13.8315 13.0618H5.1236C4.25755 13.0618 3.42697 12.7178 2.81458 12.1054C2.20219 11.493 1.85815 10.6624 1.85815 9.79634V7.61938C1.85815 7.47503 1.91549 7.3366 2.01756 7.23454C2.11962 7.13247 2.25805 7.07513 2.4024 7.07513H10.0218" stroke="#6D737A" stroke-width="1.08848" stroke-linecap="round" stroke-linejoin="round"/>
</svg>
