<svg width="19" height="18" viewBox="0 0 19 18" fill="none" xmlns="http://www.w3.org/2000/svg">
<path d="M5.66782 13.0618V14.6945" stroke="#6D737A" stroke-width="1.08848" stroke-linecap="round" stroke-linejoin="round"/>
<path d="M13.2872 13.0618V14.6945" stroke="#6D737A" stroke-width="1.08848" stroke-linecap="round" stroke-linejoin="round"/>
<path d="M4.57935 7.07517V3.53761C4.57935 3.17675 4.72269 2.83068 4.97786 2.57551C5.23302 2.32035 5.57909 2.177 5.93995 2.177C6.3008 2.177 6.64688 2.32035 6.90204 2.57551C7.1572 2.83068 7.30055 3.17675 7.30055 3.53761" stroke="#6D737A" stroke-width="1.08848" stroke-linecap="round" stroke-linejoin="round"/>
<path d="M14.3757 6.53088H10.0218V9.79633H14.3757V6.53088Z" stroke="#6D737A" stroke-width="1.08848" stroke-linecap="round" stroke-linejoin="round"/>
<path d="M14.3757 7.0752H16.5527C16.697 7.0752 16.8354 7.13253 16.9375 7.2346C17.0396 7.33667 17.0969 7.47509 17.0969 7.61944V9.7964C17.0969 10.6625 16.7529 11.493 16.1405 12.1054C15.5281 12.7178 14.6975 13.0618 13.8314 13.0618H5.12359C4.25754 13.0618 3.42696 12.7178 2.81457 12.1054C2.20218 11.493 1.85814 10.6625 1.85814 9.7964V7.61944C1.85814 7.47509 1.91548 7.33667 2.01754 7.2346C2.11961 7.13253 2.25804 7.0752 2.40238 7.0752H10.0218" stroke="#6D737A" stroke-width="1.08848" stroke-linecap="round" stroke-linejoin="round"/>
</svg>
