<svg width="19" height="19" viewBox="0 0 19 19" fill="none" xmlns="http://www.w3.org/2000/svg">
<path d="M5.66782 14.0524V15.6851" stroke="#6D737A" stroke-width="1.08848" stroke-linecap="round" stroke-linejoin="round"/>
<path d="M13.2872 14.0524V15.6851" stroke="#6D737A" stroke-width="1.08848" stroke-linecap="round" stroke-linejoin="round"/>
<path d="M4.57935 8.06577V4.52821C4.57935 4.16735 4.72269 3.82128 4.97786 3.56611C5.23302 3.31095 5.57909 3.1676 5.93995 3.1676C6.3008 3.1676 6.64688 3.31095 6.90204 3.56611C7.1572 3.82128 7.30055 4.16735 7.30055 4.52821" stroke="#6D737A" stroke-width="1.08848" stroke-linecap="round" stroke-linejoin="round"/>
<path d="M14.3757 7.52148H10.0218V10.7869H14.3757V7.52148Z" stroke="#6D737A" stroke-width="1.08848" stroke-linecap="round" stroke-linejoin="round"/>
<path d="M14.3757 8.0658H16.5527C16.697 8.0658 16.8354 8.12314 16.9375 8.2252C17.0396 8.32727 17.0969 8.4657 17.0969 8.61004V10.787C17.0969 11.6531 16.7529 12.4836 16.1405 13.096C15.5281 13.7084 14.6975 14.0525 13.8314 14.0525H5.12359C4.25754 14.0525 3.42696 13.7084 2.81457 13.096C2.20218 12.4836 1.85814 11.6531 1.85814 10.787V8.61004C1.85814 8.4657 1.91548 8.32727 2.01754 8.2252C2.11961 8.12314 2.25804 8.0658 2.40238 8.0658H10.0218" stroke="#6D737A" stroke-width="1.08848" stroke-linecap="round" stroke-linejoin="round"/>
</svg>
