<svg width="19" height="18" viewBox="0 0 19 18" fill="none" xmlns="http://www.w3.org/2000/svg">
<path d="M5.66772 13.0618V14.6945" stroke="#6D737A" stroke-width="1.08848" stroke-linecap="round" stroke-linejoin="round"/>
<path d="M13.2871 13.0618V14.6945" stroke="#6D737A" stroke-width="1.08848" stroke-linecap="round" stroke-linejoin="round"/>
<path d="M4.5791 7.07514V3.53757C4.5791 3.17672 4.72245 2.83065 4.97761 2.57548C5.23278 2.32032 5.57885 2.17697 5.9397 2.17697C6.30056 2.17697 6.64663 2.32032 6.9018 2.57548C7.15696 2.83065 7.30031 3.17672 7.30031 3.53757" stroke="#6D737A" stroke-width="1.08848" stroke-linecap="round" stroke-linejoin="round"/>
<path d="M14.3757 6.5309H10.0217V9.79635H14.3757V6.5309Z" stroke="#6D737A" stroke-width="1.08848" stroke-linecap="round" stroke-linejoin="round"/>
<path d="M14.3755 7.07513H16.5524C16.6968 7.07513 16.8352 7.13247 16.9373 7.23454C17.0393 7.3366 17.0967 7.47503 17.0967 7.61938V9.79634C17.0967 10.6624 16.7526 11.493 16.1402 12.1054C15.5278 12.7178 14.6973 13.0618 13.8312 13.0618H5.12336C4.25731 13.0618 3.42673 12.7178 2.81434 12.1054C2.20195 11.493 1.85791 10.6624 1.85791 9.79634V7.61938C1.85791 7.47503 1.91525 7.3366 2.01731 7.23454C2.11938 7.13247 2.25781 7.07513 2.40215 7.07513H10.0215" stroke="#6D737A" stroke-width="1.08848" stroke-linecap="round" stroke-linejoin="round"/>
</svg>
