<svg width="18" height="18" viewBox="0 0 18 18" fill="none" xmlns="http://www.w3.org/2000/svg">
<path d="M1.0885 8.16357H16.3273" stroke="#6D737A" stroke-width="1.08848" stroke-linecap="round" stroke-linejoin="round"/>
<path d="M15.2388 12.5176V14.1503C15.2388 14.2946 15.1814 14.4331 15.0794 14.5351C14.9773 14.6372 14.8389 14.6945 14.6945 14.6945H13.0618C12.9175 14.6945 12.779 14.6372 12.677 14.5351C12.5749 14.4331 12.5176 14.2946 12.5176 14.1503V12.5176" stroke="#6D737A" stroke-width="1.08848" stroke-linecap="round" stroke-linejoin="round"/>
<path d="M4.89815 12.5176V14.1503C4.89815 14.2946 4.84081 14.4331 4.73874 14.5351C4.63668 14.6372 4.49825 14.6945 4.35391 14.6945H2.72118C2.57684 14.6945 2.43841 14.6372 2.33635 14.5351C2.23428 14.4331 2.17694 14.2946 2.17694 14.1503V12.5176" stroke="#6D737A" stroke-width="1.08848" stroke-linecap="round" stroke-linejoin="round"/>
<path d="M4.35394 10.3406H5.44243" stroke="#6D737A" stroke-width="1.08848" stroke-linecap="round" stroke-linejoin="round"/>
<path d="M11.9733 10.3406H13.0618" stroke="#6D737A" stroke-width="1.08848" stroke-linecap="round" stroke-linejoin="round"/>
<path d="M15.2387 8.16367L13.2046 3.59205C13.1624 3.49533 13.093 3.41297 13.0048 3.355C12.9167 3.29702 12.8135 3.26593 12.708 3.2655H4.70766C4.60214 3.26593 4.49901 3.29702 4.41084 3.355C4.32267 3.41297 4.25325 3.49533 4.21104 3.59205L2.17694 8.16367V12.5176H15.2387V8.16367Z" stroke="#6D737A" stroke-width="1.08848" stroke-linecap="round" stroke-linejoin="round"/>
</svg>
