<svg width="18" height="18" viewBox="0 0 18 18" fill="none" xmlns="http://www.w3.org/2000/svg">
<path d="M1.08847 8.16357H16.3272" stroke="#6D737A" stroke-width="1.08848" stroke-linecap="round" stroke-linejoin="round"/>
<path d="M15.2388 12.5176V14.1503C15.2388 14.2946 15.1814 14.4331 15.0793 14.5351C14.9773 14.6372 14.8389 14.6945 14.6945 14.6945H13.0618C12.9174 14.6945 12.779 14.6372 12.677 14.5351C12.5749 14.4331 12.5175 14.2946 12.5175 14.1503V12.5176" stroke="#6D737A" stroke-width="1.08848" stroke-linecap="round" stroke-linejoin="round"/>
<path d="M4.89818 12.5176V14.1503C4.89818 14.2946 4.84084 14.4331 4.73877 14.5351C4.63671 14.6372 4.49828 14.6945 4.35394 14.6945H2.72121C2.57687 14.6945 2.43844 14.6372 2.33638 14.5351C2.23431 14.4331 2.17697 14.2946 2.17697 14.1503V12.5176" stroke="#6D737A" stroke-width="1.08848" stroke-linecap="round" stroke-linejoin="round"/>
<path d="M4.35394 10.3406H5.44243" stroke="#6D737A" stroke-width="1.08848" stroke-linecap="round" stroke-linejoin="round"/>
<path d="M11.9733 10.3406H13.0618" stroke="#6D737A" stroke-width="1.08848" stroke-linecap="round" stroke-linejoin="round"/>
<path d="M15.2388 8.16367L13.2047 3.59205C13.1625 3.49533 13.093 3.41297 13.0049 3.355C12.9167 3.29702 12.8136 3.26593 12.708 3.2655H4.70769C4.60217 3.26593 4.49904 3.29702 4.41087 3.355C4.3227 3.41297 4.25328 3.49533 4.21107 3.59205L2.17697 8.16367V12.5176H15.2388V8.16367Z" stroke="#6D737A" stroke-width="1.08848" stroke-linecap="round" stroke-linejoin="round"/>
</svg>
