<svg width="18" height="19" viewBox="0 0 18 19" fill="none" xmlns="http://www.w3.org/2000/svg">
<path d="M1.08849 9.15417H16.3272" stroke="#6D737A" stroke-width="1.08848" stroke-linecap="round" stroke-linejoin="round"/>
<path d="M15.2388 13.5082V15.1409C15.2388 15.2852 15.1814 15.4237 15.0793 15.5257C14.9773 15.6278 14.8389 15.6851 14.6945 15.6851H13.0618C12.9174 15.6851 12.779 15.6278 12.677 15.5257C12.5749 15.4237 12.5175 15.2852 12.5175 15.1409V13.5082" stroke="#6D737A" stroke-width="1.08848" stroke-linecap="round" stroke-linejoin="round"/>
<path d="M4.89817 13.5082V15.1409C4.89817 15.2852 4.84083 15.4237 4.73877 15.5257C4.6367 15.6278 4.49827 15.6851 4.35393 15.6851H2.72121C2.57686 15.6851 2.43843 15.6278 2.33637 15.5257C2.2343 15.4237 2.17696 15.2852 2.17696 15.1409V13.5082" stroke="#6D737A" stroke-width="1.08848" stroke-linecap="round" stroke-linejoin="round"/>
<path d="M4.35393 11.3312H5.44241" stroke="#6D737A" stroke-width="1.08848" stroke-linecap="round" stroke-linejoin="round"/>
<path d="M11.9733 11.3312H13.0618" stroke="#6D737A" stroke-width="1.08848" stroke-linecap="round" stroke-linejoin="round"/>
<path d="M15.2388 9.15428L13.2047 4.58265C13.1624 4.48593 13.093 4.40357 13.0049 4.3456C12.9167 4.28762 12.8136 4.25653 12.708 4.2561H4.70769C4.60216 4.25653 4.49904 4.28762 4.41086 4.3456C4.32269 4.40357 4.25328 4.48593 4.21107 4.58265L2.17696 9.15428V13.5082H15.2388V9.15428Z" stroke="#6D737A" stroke-width="1.08848" stroke-linecap="round" stroke-linejoin="round"/>
</svg>
