<svg width="18" height="18" viewBox="0 0 18 18" fill="none" xmlns="http://www.w3.org/2000/svg">
<path d="M1.08838 8.16362H16.3271" stroke="#6D737A" stroke-width="1.08848" stroke-linecap="round" stroke-linejoin="round"/>
<path d="M15.2388 12.5175V14.1503C15.2388 14.2946 15.1814 14.433 15.0794 14.5351C14.9773 14.6372 14.8389 14.6945 14.6945 14.6945H13.0618C12.9175 14.6945 12.779 14.6372 12.677 14.5351C12.5749 14.433 12.5176 14.2946 12.5176 14.1503V12.5175" stroke="#6D737A" stroke-width="1.08848" stroke-linecap="round" stroke-linejoin="round"/>
<path d="M4.89821 12.5175V14.1503C4.89821 14.2946 4.84087 14.433 4.7388 14.5351C4.63674 14.6372 4.49831 14.6945 4.35397 14.6945H2.72124C2.5769 14.6945 2.43847 14.6372 2.33641 14.5351C2.23434 14.433 2.177 14.2946 2.177 14.1503V12.5175" stroke="#6D737A" stroke-width="1.08848" stroke-linecap="round" stroke-linejoin="round"/>
<path d="M4.354 10.3406H5.44249" stroke="#6D737A" stroke-width="1.08848" stroke-linecap="round" stroke-linejoin="round"/>
<path d="M11.9734 10.3406H13.0619" stroke="#6D737A" stroke-width="1.08848" stroke-linecap="round" stroke-linejoin="round"/>
<path d="M15.2388 8.16361L13.2047 3.59199C13.1625 3.49527 13.0931 3.41291 13.0049 3.35493C12.9167 3.29696 12.8136 3.26587 12.7081 3.26544H4.70772C4.6022 3.26587 4.49907 3.29696 4.4109 3.35493C4.32273 3.41291 4.25331 3.49527 4.2111 3.59199L2.177 8.16361V12.5175H15.2388V8.16361Z" stroke="#6D737A" stroke-width="1.08848" stroke-linecap="round" stroke-linejoin="round"/>
</svg>
