<svg width="16" height="16" viewBox="0 0 16 16" fill="none" xmlns="http://www.w3.org/2000/svg">
<path d="M7.81463 13.1826C7.81463 13.1826 2.14545 10.0079 2.14545 6.15281C2.14545 5.47131 2.38156 4.81086 2.81363 4.28383C3.24569 3.7568 3.84701 3.39574 4.51528 3.26209C5.18354 3.12843 5.87747 3.23044 6.479 3.55075C7.08054 3.87107 7.55251 4.3899 7.81463 5.01898V5.01898C8.07674 4.3899 8.54872 3.87107 9.15025 3.55075C9.75178 3.23044 10.4457 3.12843 11.114 3.26209C11.7822 3.39574 12.3836 3.7568 12.8156 4.28383C13.2477 4.81086 13.4838 5.47131 13.4838 6.15281C13.4838 10.0079 7.81463 13.1826 7.81463 13.1826Z" stroke="#4A60A1" stroke-width="0.936687" stroke-linecap="round" stroke-linejoin="round"/>
</svg>
