<svg width="16" height="16" viewBox="0 0 16 16" fill="none" xmlns="http://www.w3.org/2000/svg">
<path d="M7.81469 13.192C7.81469 13.192 2.14551 10.0173 2.14551 6.16226C2.14551 5.48076 2.38163 4.82031 2.81369 4.29327C3.24575 3.76624 3.84707 3.40518 4.51534 3.27153C5.1836 3.13788 5.87753 3.23989 6.47907 3.5602C7.0806 3.88051 7.55257 4.39934 7.81469 5.02842V5.02842C8.0768 4.39934 8.54878 3.88051 9.15031 3.5602C9.75184 3.23989 10.4458 3.13788 11.114 3.27153C11.7823 3.40518 12.3836 3.76624 12.8157 4.29327C13.2477 4.82031 13.4839 5.48076 13.4839 6.16226C13.4839 10.0173 7.81469 13.192 7.81469 13.192Z" stroke="#4A60A1" stroke-width="0.936687" stroke-linecap="round" stroke-linejoin="round"/>
</svg>
