<svg width="16" height="16" viewBox="0 0 16 16" fill="none" xmlns="http://www.w3.org/2000/svg">
<path d="M7.81466 13.1826C7.81466 13.1826 2.14548 10.0079 2.14548 6.15281C2.14548 5.47131 2.3816 4.81086 2.81366 4.28383C3.24572 3.7568 3.84704 3.39574 4.51531 3.26209C5.18357 3.12843 5.8775 3.23044 6.47903 3.55075C7.08057 3.87107 7.55254 4.3899 7.81466 5.01898V5.01898C8.07677 4.3899 8.54875 3.87107 9.15028 3.55075C9.75181 3.23044 10.4457 3.12843 11.114 3.26209C11.7823 3.39574 12.3836 3.7568 12.8157 4.28383C13.2477 4.81086 13.4838 5.47131 13.4838 6.15281C13.4838 10.0079 7.81466 13.1826 7.81466 13.1826Z" stroke="#4A60A1" stroke-width="0.936687" stroke-linecap="round" stroke-linejoin="round"/>
</svg>
