<svg width="16" height="16" viewBox="0 0 16 16" fill="none" xmlns="http://www.w3.org/2000/svg">
<path d="M7.81469 13.1921C7.81469 13.1921 2.14551 10.0173 2.14551 6.16229C2.14551 5.48079 2.38163 4.82034 2.81369 4.29331C3.24575 3.76627 3.84707 3.40522 4.51534 3.27156C5.1836 3.13791 5.87753 3.23992 6.47907 3.56023C7.0806 3.88054 7.55257 4.39938 7.81469 5.02845V5.02845C8.0768 4.39938 8.54878 3.88054 9.15031 3.56023C9.75184 3.23992 10.4458 3.13791 11.114 3.27156C11.7823 3.40522 12.3836 3.76627 12.8157 4.29331C13.2477 4.82034 13.4839 5.48079 13.4839 6.16229C13.4839 10.0173 7.81469 13.1921 7.81469 13.1921Z" stroke="#4A60A1" stroke-width="0.936687" stroke-linecap="round" stroke-linejoin="round"/>
</svg>
