<svg width="44" height="45" viewBox="0 0 44 45" fill="none" xmlns="http://www.w3.org/2000/svg">
<path d="M37.125 38.1069V20.8335C37.1219 20.6432 37.0808 20.4555 37.0041 20.2813C36.9273 20.1071 36.8165 19.9501 36.6781 19.8194L22.9281 7.32412C22.6746 7.09223 22.3435 6.96362 22 6.96362C21.6565 6.96362 21.3254 7.09223 21.0719 7.32412L7.32187 19.8194C7.18351 19.9501 7.07269 20.1071 6.99595 20.2813C6.9192 20.4555 6.87808 20.6432 6.875 20.8335V38.1069" stroke="#4A60A1" stroke-width="2.75" stroke-linecap="round" stroke-linejoin="round"/>
<path d="M2.75 38.1062H41.25" stroke="#4A60A1" stroke-width="2.75" stroke-linecap="round" stroke-linejoin="round"/>
<path d="M26.125 38.1062V28.4812C26.125 28.1165 25.9801 27.7668 25.7223 27.5089C25.4644 27.2511 25.1147 27.1062 24.75 27.1062H19.25C18.8853 27.1062 18.5356 27.2511 18.2777 27.5089C18.0199 27.7668 17.875 28.1165 17.875 28.4812V38.1062" stroke="#4A60A1" stroke-width="2.75" stroke-linecap="round" stroke-linejoin="round"/>
</svg>
