<svg width="78" height="78" viewBox="0 0 78 78" fill="none" xmlns="http://www.w3.org/2000/svg">
<path d="M68.8086 38.2565H68.7868C68.4911 38.2565 68.2063 38.1441 67.9905 37.9445L55.739 26.5855C55.2638 26.1448 55.2366 25.4028 55.6755 24.9294C56.1163 24.4541 56.8582 24.4269 57.3317 24.8659L69.458 36.107C69.7736 36.3174 69.9804 36.6766 69.9804 37.0829C69.9804 37.7323 69.4561 38.2565 68.8086 38.2565ZM45.2562 16.4437C44.9714 16.4437 44.6848 16.3403 44.4599 16.1317C40.9535 12.8829 38.4901 10.5974 38.4901 10.5974C38.1727 10.3035 38.0439 9.85908 38.1527 9.44006C38.2616 9.02103 38.5935 8.69815 39.0144 8.59657L39.2339 8.54396C39.8579 8.39522 40.4855 8.77615 40.6433 9.39652C41.5612 10.2473 43.5402 12.083 46.0543 14.4121C46.5296 14.8529 46.5568 15.5948 46.1178 16.0682C45.8856 16.3168 45.5718 16.4437 45.2562 16.4437Z" fill="#4A60A1"/>
<path d="M62.9296 69.4898C62.3237 69.4898 61.8104 69.0236 61.7614 68.4105C61.7414 68.1565 61.8031 67.9153 61.9246 67.7139V37.0762C61.9246 36.4287 62.4489 35.9044 63.0965 35.9044C63.744 35.9044 64.2683 36.4287 64.2683 37.0762V68.3053C64.2683 68.9166 63.7985 69.4245 63.189 69.4734L63.0221 69.4861C62.9912 69.488 62.9604 69.4898 62.9296 69.4898Z" fill="#4A60A1"/>
<path d="M57.6601 25.4302C57.0143 25.4302 56.4882 24.9078 56.4882 24.2602L56.4665 13.9261C55.9713 13.781 55.6157 13.3203 55.6248 12.7797C55.6375 12.1321 56.1762 11.6115 56.8184 11.6297L57.6582 11.6442C58.2968 11.6551 58.8083 12.1757 58.8083 12.8142L58.8319 24.2548C58.8337 24.9024 58.3095 25.4284 57.6619 25.4302C57.6619 25.4302 57.6619 25.4302 57.6601 25.4302Z" fill="#4A60A1"/>
<path d="M56.182 26.1858C56.182 26.9714 56.8181 27.6076 57.6038 27.6076C58.3889 27.6076 59.0274 26.9719 59.0274 26.1858V12.67C59.0274 11.8843 58.3913 11.2482 57.6056 11.2482H49.0546C48.269 11.2482 47.6328 11.8843 47.6328 12.67V18.2116C47.6328 18.9973 48.269 19.6334 49.0546 19.6334C49.8403 19.6334 50.4764 18.9973 50.4764 18.2116V14.0918H56.182V26.1858Z" fill="#1E2640" stroke="#1E2640" stroke-width="0.5"/>
<path d="M8.23161 36.0345L8.23138 36.0347C7.65312 36.5646 7.6106 37.4646 8.14159 38.0441C8.42133 38.3501 8.80667 38.5061 9.19116 38.5061C9.53416 38.5061 9.87781 38.3828 10.1504 38.1344L10.1507 38.1341L39.1057 11.6678L67.6464 38.1275L67.6467 38.1278C68.223 38.66 69.121 38.6273 69.6558 38.0507L69.6558 38.0506C70.1887 37.4759 70.1554 36.5758 69.579 36.0412L69.5789 36.0412L40.079 8.69255C39.537 8.18804 38.6983 8.18623 38.1526 8.68568L8.23161 36.0345Z" fill="#4A60A1" stroke="#4A60A1" stroke-width="0.5"/>
<path d="M14.8071 69.7365H63.1072L64.2772 68.3129H64.5272V68.3122V33.7571C64.5272 32.9714 63.8911 32.3353 63.1054 32.3353C62.3197 32.3353 61.6836 32.9714 61.6836 33.7571V66.8911H16.2289V32.7032C16.2289 31.9175 15.5927 31.2814 14.8071 31.2814C14.0214 31.2814 13.3853 31.9175 13.3853 32.7032V68.3147C13.3853 69.1004 14.0214 69.7365 14.8071 69.7365Z" fill="#4A60A1" stroke="#4A60A1" stroke-width="0.5"/>
<path d="M50.6875 40.6505H27.3125C26.7257 40.6505 26.25 41.1262 26.25 41.713V58.713C26.25 59.2998 26.7257 59.7755 27.3125 59.7755H50.6875C51.2743 59.7755 51.75 59.2998 51.75 58.713V41.713C51.75 41.1262 51.2743 40.6505 50.6875 40.6505Z" stroke="#1E2640" stroke-width="2.5" stroke-linecap="round" stroke-linejoin="round"/>
<path d="M44.3125 40.6505V38.5255C44.3125 37.9619 44.0886 37.4214 43.6901 37.0229C43.2916 36.6244 42.7511 36.4005 42.1875 36.4005H35.8125C35.2489 36.4005 34.7084 36.6244 34.3099 37.0229C33.9114 37.4214 33.6875 37.9619 33.6875 38.5255V40.6505" stroke="#1E2640" stroke-width="2.5" stroke-linecap="round" stroke-linejoin="round"/>
<path d="M51.75 47.8615C47.8749 50.1026 43.4765 51.2801 39 51.2747C34.5227 51.2864 30.1226 50.1085 26.25 47.8615" stroke="#1E2640" stroke-width="2.5" stroke-linecap="round" stroke-linejoin="round"/>
<path d="M37.4062 47.0255H40.5938" stroke="#1E2640" stroke-width="2.5" stroke-linecap="round" stroke-linejoin="round"/>
</svg>
