<svg width="78" height="78" viewBox="0 0 78 78" fill="none" xmlns="http://www.w3.org/2000/svg">
<path d="M68.8086 38.2565H68.7868C68.4911 38.2565 68.2063 38.1441 67.9905 37.9445L55.739 26.5855C55.2638 26.1448 55.2366 25.4028 55.6755 24.9294C56.1163 24.4541 56.8582 24.4269 57.3317 24.8659L69.458 36.107C69.7736 36.3174 69.9804 36.6766 69.9804 37.0829C69.9804 37.7323 69.4561 38.2565 68.8086 38.2565ZM45.2562 16.4437C44.9714 16.4437 44.6848 16.3403 44.4599 16.1317C40.9535 12.8829 38.4901 10.5974 38.4901 10.5974C38.1727 10.3035 38.0439 9.85908 38.1527 9.44006C38.2616 9.02103 38.5935 8.69815 39.0144 8.59657L39.2339 8.54396C39.8579 8.39522 40.4855 8.77615 40.6433 9.39652C41.5612 10.2473 43.5402 12.083 46.0543 14.4121C46.5296 14.8529 46.5568 15.5948 46.1178 16.0682C45.8856 16.3168 45.5718 16.4437 45.2562 16.4437Z" fill="#4A60A1"/>
<path d="M62.9297 69.4898C62.3238 69.4898 61.8105 69.0236 61.7615 68.4105C61.7416 68.1565 61.8032 67.9153 61.9248 67.7139V37.0762C61.9248 36.4287 62.449 35.9044 63.0966 35.9044C63.7442 35.9044 64.2684 36.4287 64.2684 37.0762V68.3053C64.2684 68.9166 63.7986 69.4245 63.1891 69.4734L63.0222 69.4861C62.9914 69.488 62.9605 69.4898 62.9297 69.4898Z" fill="#4A60A1"/>
<path d="M57.6599 25.4302C57.0142 25.4302 56.4881 24.9078 56.4881 24.2602L56.4664 13.9261C55.9711 13.781 55.6156 13.3203 55.6247 12.7797C55.6374 12.1321 56.1761 11.6115 56.8183 11.6297L57.6581 11.6442C58.2966 11.6551 58.8082 12.1757 58.8082 12.8142L58.8317 24.2548C58.8336 24.9024 58.3093 25.4284 57.6618 25.4302C57.6618 25.4302 57.6618 25.4302 57.6599 25.4302Z" fill="#4A60A1"/>
<path d="M56.182 26.1858C56.182 26.9714 56.8181 27.6076 57.6038 27.6076C58.3889 27.6076 59.0274 26.9719 59.0274 26.1858V12.67C59.0274 11.8843 58.3913 11.2482 57.6056 11.2482H49.0546C48.269 11.2482 47.6328 11.8843 47.6328 12.67V18.2116C47.6328 18.9973 48.269 19.6334 49.0546 19.6334C49.8403 19.6334 50.4764 18.9973 50.4764 18.2116V14.0918H56.182V26.1858Z" fill="#1E2640" stroke="#1E2640" stroke-width="0.5"/>
<path d="M32.9501 68.3108V44.6602H45.2765V68.3126C45.2765 69.0983 45.9127 69.7344 46.6984 69.7344C47.4844 69.7344 48.1198 69.0962 48.122 68.3133V68.3126V43.2383C48.122 42.4527 47.4858 41.8165 46.7002 41.8165H31.5283C30.7426 41.8165 30.1064 42.4527 30.1064 43.2383V68.3108C30.1064 69.0965 30.7426 69.7326 31.5283 69.7326C32.3139 69.7326 32.9501 69.0965 32.9501 68.3108Z" fill="#1E2640" stroke="#1E2640" stroke-width="0.5"/>
<path d="M8.23161 36.0345L8.23138 36.0347C7.65312 36.5646 7.6106 37.4646 8.14159 38.0441C8.42133 38.3501 8.80667 38.5061 9.19116 38.5061C9.53416 38.5061 9.87781 38.3828 10.1504 38.1344L10.1507 38.1341L39.1057 11.6678L67.6464 38.1275L67.6467 38.1278C68.223 38.66 69.121 38.6273 69.6558 38.0507L69.6558 38.0506C70.1887 37.4759 70.1554 36.5758 69.579 36.0412L69.5789 36.0412L40.079 8.69255C39.537 8.18804 38.6983 8.18623 38.1526 8.68568L8.23161 36.0345Z" fill="#4A60A1" stroke="#4A60A1" stroke-width="0.5"/>
<path d="M14.8071 69.7365H63.1072L64.2772 68.3129H64.5272V68.3122V33.7571C64.5272 32.9714 63.8911 32.3353 63.1054 32.3353C62.3197 32.3353 61.6836 32.9714 61.6836 33.7571V66.8911H16.2289V32.7032C16.2289 31.9175 15.5927 31.2814 14.8071 31.2814C14.0214 31.2814 13.3853 31.9175 13.3853 32.7032V68.3147C13.3853 69.1004 14.0214 69.7365 14.8071 69.7365Z" fill="#4A60A1" stroke="#4A60A1" stroke-width="0.5"/>
</svg>
