<svg width="16" height="16" viewBox="0 0 16 16" fill="none" xmlns="http://www.w3.org/2000/svg">
<path d="M4.16015 10.0173C5.16207 10.0173 5.97428 9.2051 5.97428 8.20318C5.97428 7.20125 5.16207 6.38904 4.16015 6.38904C3.15823 6.38904 2.34601 7.20125 2.34601 8.20318C2.34601 9.2051 3.15823 10.0173 4.16015 10.0173Z" stroke="#4A60A1" stroke-width="0.936687" stroke-linecap="round" stroke-linejoin="round"/>
<path d="M10.5098 14.0991C11.5117 14.0991 12.3239 13.2869 12.3239 12.285C12.3239 11.283 11.5117 10.4708 10.5098 10.4708C9.50783 10.4708 8.69562 11.283 8.69562 12.285C8.69562 13.2869 9.50783 14.0991 10.5098 14.0991Z" stroke="#4A60A1" stroke-width="0.936687" stroke-linecap="round" stroke-linejoin="round"/>
<path d="M10.5098 5.93553C11.5117 5.93553 12.3239 5.12331 12.3239 4.12139C12.3239 3.11947 11.5117 2.30725 10.5098 2.30725C9.50783 2.30725 8.69562 3.11947 8.69562 4.12139C8.69562 5.12331 9.50783 5.93553 10.5098 5.93553Z" stroke="#4A60A1" stroke-width="0.936687" stroke-linecap="round" stroke-linejoin="round"/>
<path d="M8.9847 5.10217L5.68524 7.22245" stroke="#4A60A1" stroke-width="0.936687" stroke-linecap="round" stroke-linejoin="round"/>
<path d="M5.68524 9.18396L8.9847 11.3042" stroke="#4A60A1" stroke-width="0.936687" stroke-linecap="round" stroke-linejoin="round"/>
</svg>
