<svg width="16" height="16" viewBox="0 0 16 16" fill="none" xmlns="http://www.w3.org/2000/svg">
<path d="M4.16008 10.0173C5.16201 10.0173 5.97422 9.2051 5.97422 8.20318C5.97422 7.20125 5.16201 6.38904 4.16008 6.38904C3.15816 6.38904 2.34595 7.20125 2.34595 8.20318C2.34595 9.2051 3.15816 10.0173 4.16008 10.0173Z" stroke="#4A60A1" stroke-width="0.936687" stroke-linecap="round" stroke-linejoin="round"/>
<path d="M10.5097 14.0991C11.5116 14.0991 12.3238 13.2869 12.3238 12.285C12.3238 11.283 11.5116 10.4708 10.5097 10.4708C9.50779 10.4708 8.69557 11.283 8.69557 12.285C8.69557 13.2869 9.50779 14.0991 10.5097 14.0991Z" stroke="#4A60A1" stroke-width="0.936687" stroke-linecap="round" stroke-linejoin="round"/>
<path d="M10.5097 5.93553C11.5116 5.93553 12.3238 5.12331 12.3238 4.12139C12.3238 3.11947 11.5116 2.30725 10.5097 2.30725C9.50779 2.30725 8.69557 3.11947 8.69557 4.12139C8.69557 5.12331 9.50779 5.93553 10.5097 5.93553Z" stroke="#4A60A1" stroke-width="0.936687" stroke-linecap="round" stroke-linejoin="round"/>
<path d="M8.98464 5.10217L5.68518 7.22245" stroke="#4A60A1" stroke-width="0.936687" stroke-linecap="round" stroke-linejoin="round"/>
<path d="M5.68518 9.18396L8.98464 11.3042" stroke="#4A60A1" stroke-width="0.936687" stroke-linecap="round" stroke-linejoin="round"/>
</svg>
