<svg width="20" height="21" viewBox="0 0 20 21" fill="none" xmlns="http://www.w3.org/2000/svg">
<g clip-path="url(#clip0_304_1350)">
<path d="M0 3.30419C0 2.63077 0.225232 2.07522 0.675676 1.63752C1.12612 1.19981 1.71172 0.980957 2.43243 0.980957C3.14029 0.980957 3.71299 1.19643 4.15058 1.62742C4.60102 2.07186 4.82625 2.65097 4.82625 3.36479C4.82625 4.01125 4.60747 4.54996 4.16988 4.98095C3.71944 5.42539 3.12741 5.64762 2.39382 5.64762H2.37452C1.66666 5.64762 1.09396 5.42539 0.656371 4.98095C0.218784 4.53651 0 3.97758 0 3.30419ZM0.250965 20.9809V7.486H4.53668V20.9809H0.250965ZM6.9112 20.9809H11.1969V13.4456C11.1969 12.9742 11.2484 12.6106 11.3514 12.3547C11.5315 11.8968 11.805 11.5095 12.1718 11.1931C12.5386 10.8766 12.9987 10.7183 13.5521 10.7183C14.9936 10.7183 15.7143 11.7351 15.7143 13.7688V20.9809H20V13.2436C20 11.2503 19.5496 9.73852 18.6486 8.70822C17.7477 7.67792 16.5573 7.16276 15.0772 7.16276C13.417 7.16276 12.1236 7.91024 11.1969 9.40518V9.44559H11.1776L11.1969 9.40518V7.486H6.9112C6.93693 7.91697 6.94981 9.25702 6.94981 11.5062C6.94981 13.7553 6.93693 16.9136 6.9112 20.9809Z" fill="#4A60A1"/>
</g>
<defs>
<clipPath id="clip0_304_1350">
<rect width="20" height="20" fill="white" transform="translate(0 0.981201)"/>
</clipPath>
</defs>
</svg>
