<svg width="20" height="21" viewBox="0 0 20 21" fill="none" xmlns="http://www.w3.org/2000/svg">
<g clip-path="url(#clip0_304_1352)">
<path d="M6.66721 10.9812C6.66721 9.14033 8.15913 7.6476 10 7.6476C11.8409 7.6476 13.3336 9.14033 13.3336 10.9812C13.3336 12.8221 11.8409 14.3148 10 14.3148C8.15913 14.3148 6.66721 12.8221 6.66721 10.9812ZM4.86511 10.9812C4.86511 13.8172 7.16397 16.1161 10 16.1161C12.836 16.1161 15.1349 13.8172 15.1349 10.9812C15.1349 8.14517 12.836 5.84631 10 5.84631C7.16397 5.84631 4.86511 8.14517 4.86511 10.9812ZM14.1381 5.64275C14.1381 6.30511 14.6753 6.84308 15.3385 6.84308C16.0008 6.84308 16.5388 6.30511 16.5388 5.64275C16.5388 4.98039 16.0016 4.44324 15.3385 4.44324C14.6753 4.44324 14.1381 4.98039 14.1381 5.64275ZM5.95961 19.1209C4.98465 19.0765 4.45477 18.9142 4.10259 18.7768C3.6357 18.5951 3.30291 18.3786 2.95234 18.0289C2.60259 17.6791 2.3853 17.3463 2.20436 16.8794C2.06704 16.5272 1.90469 15.9974 1.86026 15.0224C1.81179 13.9683 1.8021 13.6516 1.8021 10.9812C1.8021 8.31076 1.8126 7.99493 1.86026 6.94001C1.90469 5.96505 2.06785 5.43597 2.20436 5.08298C2.38611 4.6161 2.60259 4.2833 2.95234 3.93274C3.3021 3.58298 3.6349 3.36569 4.10259 3.18476C4.45477 3.04744 4.98465 2.88508 5.95961 2.84065C7.01373 2.79219 7.33037 2.78249 10 2.78249C12.6704 2.78249 12.9863 2.79299 14.0412 2.84065C15.0162 2.88508 15.5452 3.04824 15.8982 3.18476C16.3651 3.36569 16.6979 3.58298 17.0485 3.93274C17.3982 4.28249 17.6147 4.6161 17.7964 5.08298C17.9338 5.43516 18.0961 5.96505 18.1406 6.94001C18.189 7.99493 18.1987 8.31076 18.1987 10.9812C18.1987 13.6508 18.189 13.9675 18.1406 15.0224C18.0961 15.9974 17.933 16.5272 17.7964 16.8794C17.6147 17.3463 17.3982 17.6791 17.0485 18.0289C16.6987 18.3786 16.3651 18.5951 15.8982 18.7768C15.546 18.9142 15.0162 19.0765 14.0412 19.1209C12.9871 19.1694 12.6704 19.1791 10 19.1791C7.33037 19.1791 7.01373 19.1694 5.95961 19.1209ZM5.87722 1.04178C4.8126 1.09025 4.08562 1.25907 3.44992 1.50624C2.79241 1.76149 2.23506 2.10398 1.67851 2.65971C1.12278 3.21545 0.780291 3.7728 0.52504 4.43112C0.277868 5.06682 0.109047 5.7938 0.0605816 6.85842C0.0113086 7.92466 0 8.26553 0 10.9812C0 13.6969 0.0113086 14.0377 0.0605816 15.104C0.109047 16.1686 0.277868 16.8956 0.52504 17.5313C0.780291 18.1888 1.12197 18.747 1.67851 19.3027C2.23425 19.8584 2.7916 20.2001 3.44992 20.4562C4.08643 20.7033 4.8126 20.8722 5.87722 20.9206C6.94427 20.9691 7.28433 20.9812 10 20.9812C12.7165 20.9812 13.0565 20.9699 14.1228 20.9206C15.1874 20.8722 15.9144 20.7033 16.5501 20.4562C17.2076 20.2001 17.7649 19.8584 18.3215 19.3027C18.8772 18.747 19.2189 18.1888 19.475 17.5313C19.7221 16.8956 19.8918 16.1686 19.9394 15.104C19.9879 14.0369 19.9992 13.6969 19.9992 10.9812C19.9992 8.26553 19.9879 7.92466 19.9394 6.85842C19.891 5.7938 19.7221 5.06682 19.475 4.43112C19.2189 3.77361 18.8772 3.21626 18.3215 2.65971C17.7658 2.10398 17.2076 1.76149 16.5509 1.50624C15.9144 1.25907 15.1874 1.08944 14.1236 1.04178C13.0574 0.993317 12.7165 0.981201 10.0008 0.981201C7.28433 0.981201 6.94427 0.99251 5.87722 1.04178Z" fill="#4A60A1"/>
</g>
<defs>
<clipPath id="clip0_304_1352">
<rect width="20" height="20" fill="white" transform="translate(0 0.981201)"/>
</clipPath>
</defs>
</svg>
