<svg width="20" height="21" viewBox="0 0 20 21" fill="none" xmlns="http://www.w3.org/2000/svg">
<g clip-path="url(#clip0_1_482)">
<path d="M0 10.9907C0 9.17738 0.44668 7.50406 1.34 5.97072C2.23334 4.43738 3.44668 3.22406 4.98 2.33072C6.51334 1.43738 8.18668 0.990723 10 0.990723C11.8133 0.990723 13.4867 1.43738 15.02 2.33072C16.5533 3.22406 17.7667 4.43738 18.66 5.97072C19.5533 7.50406 20 9.17738 20 10.9907C20 12.8041 19.5533 14.4774 18.66 16.0107C17.7667 17.5441 16.5533 18.7574 15.02 19.6507C13.4867 20.5441 11.8133 20.9907 10 20.9907C8.18668 20.9907 6.51334 20.5441 4.98 19.6507C3.44668 18.7574 2.23334 17.5441 1.34 16.0107C0.44668 14.4774 0 12.8041 0 10.9907ZM1.66 10.9907C1.66 13.0707 2.36 14.9041 3.76 16.4907C4.4 15.2374 5.41334 14.0441 6.8 12.9107C8.18668 11.7774 9.54 11.0641 10.86 10.7707C10.66 10.3041 10.4667 9.88406 10.28 9.51072C7.98668 10.2441 5.50668 10.6107 2.84 10.6107C2.32 10.6107 1.93334 10.6041 1.68 10.5907C1.68 10.6441 1.67668 10.7107 1.67 10.7907C1.66334 10.8707 1.66 10.9374 1.66 10.9907ZM1.92 8.93072C2.21334 8.95738 2.64668 8.97072 3.22 8.97072C5.44668 8.97072 7.56 8.67072 9.56 8.07072C8.54668 6.27072 7.43334 4.77072 6.22 3.57072C5.16668 4.10406 4.26334 4.84406 3.51 5.79072C2.75668 6.73738 2.22668 7.78406 1.92 8.93072ZM4.9 17.5707C6.40668 18.7441 8.10668 19.3307 10 19.3307C10.9867 19.3307 11.9667 19.1441 12.94 18.7707C12.6733 16.4907 12.1533 14.2841 11.38 12.1507C10.1533 12.4174 8.91668 13.0907 7.67 14.1707C6.42334 15.2507 5.5 16.3841 4.9 17.5707ZM7.96 2.93072C9.13334 4.14406 10.22 5.65738 11.22 7.47072C13.0333 6.71072 14.4 5.74406 15.32 4.57072C13.7733 3.29072 12 2.65072 10 2.65072C9.32 2.65072 8.64 2.74406 7.96 2.93072ZM11.94 8.89072C12.14 9.31738 12.3667 9.85738 12.62 10.5107C13.6067 10.4174 14.68 10.3707 15.84 10.3707C16.6667 10.3707 17.4867 10.3907 18.3 10.4307C18.1933 8.61738 17.54 7.00406 16.34 5.59072C15.4733 6.88406 14.0067 7.98406 11.94 8.89072ZM13.12 11.9107C13.8 13.8841 14.26 15.9107 14.5 17.9907C15.5533 17.3107 16.4133 16.4374 17.08 15.3707C17.7467 14.3041 18.1467 13.1507 18.28 11.9107C17.3067 11.8441 16.42 11.8107 15.62 11.8107C14.8867 11.8107 14.0533 11.8441 13.12 11.9107Z" fill="#4A60A1"/>
</g>
<defs>
<clipPath id="clip0_1_482">
<rect width="20" height="20" fill="white" transform="translate(0 0.990723)"/>
</clipPath>
</defs>
</svg>
