<svg width="20" height="21" viewBox="0 0 20 21" fill="none" xmlns="http://www.w3.org/2000/svg">
<g clip-path="url(#clip0_1_486)">
<path d="M6.66721 10.9907C6.66721 9.14985 8.15913 7.65712 10 7.65712C11.8409 7.65712 13.3336 9.14985 13.3336 10.9907C13.3336 12.8316 11.8409 14.3243 10 14.3243C8.15913 14.3243 6.66721 12.8316 6.66721 10.9907ZM4.86511 10.9907C4.86511 13.8267 7.16397 16.1256 10 16.1256C12.836 16.1256 15.1349 13.8267 15.1349 10.9907C15.1349 8.1547 12.836 5.85583 10 5.85583C7.16397 5.85583 4.86511 8.1547 4.86511 10.9907ZM14.1381 5.65227C14.1381 6.31463 14.6753 6.8526 15.3385 6.8526C16.0008 6.8526 16.5388 6.31463 16.5388 5.65227C16.5388 4.98991 16.0016 4.45276 15.3385 4.45276C14.6753 4.45276 14.1381 4.98991 14.1381 5.65227ZM5.95961 19.1305C4.98465 19.086 4.45477 18.9237 4.10259 18.7864C3.6357 18.6046 3.30291 18.3881 2.95234 18.0384C2.60259 17.6886 2.3853 17.3558 2.20436 16.8889C2.06704 16.5368 1.90469 16.0069 1.86026 15.0319C1.81179 13.9778 1.8021 13.6612 1.8021 10.9907C1.8021 8.32029 1.8126 8.00445 1.86026 6.94953C1.90469 5.97457 2.06785 5.44549 2.20436 5.0925C2.38611 4.62562 2.60259 4.29282 2.95234 3.94226C3.3021 3.5925 3.6349 3.37521 4.10259 3.19428C4.45477 3.05696 4.98465 2.8946 5.95961 2.85017C7.01373 2.80171 7.33037 2.79201 10 2.79201C12.6704 2.79201 12.9863 2.80252 14.0412 2.85017C15.0162 2.8946 15.5452 3.05777 15.8982 3.19428C16.3651 3.37521 16.6979 3.5925 17.0485 3.94226C17.3982 4.29201 17.6147 4.62562 17.7964 5.0925C17.9338 5.44468 18.0961 5.97457 18.1406 6.94953C18.189 8.00445 18.1987 8.32029 18.1987 10.9907C18.1987 13.6604 18.189 13.977 18.1406 15.0319C18.0961 16.0069 17.933 16.5368 17.7964 16.8889C17.6147 17.3558 17.3982 17.6886 17.0485 18.0384C16.6987 18.3881 16.3651 18.6046 15.8982 18.7864C15.546 18.9237 15.0162 19.086 14.0412 19.1305C12.9871 19.1789 12.6704 19.1886 10 19.1886C7.33037 19.1886 7.01373 19.1789 5.95961 19.1305ZM5.87722 1.0513C4.8126 1.09977 4.08562 1.26859 3.44992 1.51576C2.79241 1.77101 2.23506 2.1135 1.67851 2.66924C1.12278 3.22497 0.780291 3.78232 0.52504 4.44064C0.277868 5.07634 0.109047 5.80332 0.0605816 6.86794C0.0113086 7.93418 0 8.27505 0 10.9907C0 13.7064 0.0113086 14.0473 0.0605816 15.1135C0.109047 16.1781 0.277868 16.9051 0.52504 17.5408C0.780291 18.1983 1.12197 18.7565 1.67851 19.3122C2.23425 19.8679 2.7916 20.2096 3.44992 20.4657C4.08643 20.7129 4.8126 20.8817 5.87722 20.9301C6.94427 20.9786 7.28433 20.9907 10 20.9907C12.7165 20.9907 13.0565 20.9794 14.1228 20.9301C15.1874 20.8817 15.9144 20.7129 16.5501 20.4657C17.2076 20.2096 17.7649 19.8679 18.3215 19.3122C18.8772 18.7565 19.2189 18.1983 19.475 17.5408C19.7221 16.9051 19.8918 16.1781 19.9394 15.1135C19.9879 14.0465 19.9992 13.7064 19.9992 10.9907C19.9992 8.27505 19.9879 7.93418 19.9394 6.86794C19.891 5.80332 19.7221 5.07634 19.475 4.44064C19.2189 3.78313 18.8772 3.22578 18.3215 2.66924C17.7658 2.1135 17.2076 1.77101 16.5509 1.51576C15.9144 1.26859 15.1874 1.09896 14.1236 1.0513C13.0574 1.00284 12.7165 0.990723 10.0008 0.990723C7.28433 0.990723 6.94427 1.00203 5.87722 1.0513Z" fill="#4A60A1"/>
</g>
<defs>
<clipPath id="clip0_1_486">
<rect width="20" height="20" fill="white" transform="translate(0 0.990723)"/>
</clipPath>
</defs>
</svg>
