<svg width="20" height="21" viewBox="0 0 20 21" fill="none" xmlns="http://www.w3.org/2000/svg">
<path d="M8.07031 9.90291C8.07031 9.90291 9.96264 9.76425 9.96264 7.57395C9.96264 5.3835 8.41448 4.31451 6.4534 4.31451H0.000244141V16.5551H6.4534C6.4534 16.5551 10.3928 16.6779 10.3928 12.9422C10.3928 12.9423 10.5646 9.90291 8.07031 9.90291ZM5.9889 6.49014H6.4534C6.4534 6.49014 7.33057 6.49014 7.33057 7.76371C7.33057 9.03713 6.8147 9.22176 6.22956 9.22176H2.84359V6.49014H5.9889ZM6.27104 14.3795H2.84359V11.1084H6.4534C6.4534 11.1084 7.76078 11.0915 7.76078 12.7894C7.76078 14.2212 6.78429 14.3687 6.27104 14.3795ZM15.6467 7.42887C10.8776 7.42887 10.8818 12.1321 10.8818 12.1321C10.8818 12.1321 10.5546 16.8111 15.6467 16.8111C15.6467 16.8111 19.8901 17.0504 19.8901 13.5562H17.7078C17.7078 13.5562 17.7805 14.872 15.7195 14.872C15.7195 14.872 13.5368 15.0164 13.5368 12.7425H19.9628C19.9628 12.7424 20.666 7.42887 15.6467 7.42887ZM13.5129 11.1084C13.5129 11.1084 13.7793 9.22172 15.6952 9.22172C17.6106 9.22172 17.5866 11.1084 17.5866 11.1084H13.5129ZM18.095 6.54297H12.9786V5.03564H18.095V6.54297Z" fill="#4A60A1"/>
</svg>
