<svg width="20" height="21" viewBox="0 0 20 21" fill="none" xmlns="http://www.w3.org/2000/svg">
<path d="M8.07031 9.91237C8.07031 9.91237 9.96264 9.77371 9.96264 7.58341C9.96264 5.39296 8.41448 4.32397 6.4534 4.32397H0.000244141V16.5645H6.4534C6.4534 16.5645 10.3928 16.6874 10.3928 12.9517C10.3928 12.9517 10.5646 9.91237 8.07031 9.91237ZM5.9889 6.4996H6.4534C6.4534 6.4996 7.33057 6.4996 7.33057 7.77317C7.33057 9.04659 6.8147 9.23122 6.22956 9.23122H2.84359V6.4996H5.9889ZM6.27104 14.389H2.84359V11.1179H6.4534C6.4534 11.1179 7.76078 11.1009 7.76078 12.7989C7.76078 14.2306 6.78429 14.3782 6.27104 14.389ZM15.6467 7.43833C10.8776 7.43833 10.8818 12.1415 10.8818 12.1415C10.8818 12.1415 10.5546 16.8206 15.6467 16.8206C15.6467 16.8206 19.8901 17.0599 19.8901 13.5656H17.7078C17.7078 13.5656 17.7805 14.8815 15.7195 14.8815C15.7195 14.8815 13.5368 15.0259 13.5368 12.7519H19.9628C19.9628 12.7519 20.666 7.43833 15.6467 7.43833ZM13.5129 11.1179C13.5129 11.1179 13.7793 9.23118 15.6952 9.23118C17.6106 9.23118 17.5866 11.1179 17.5866 11.1179H13.5129ZM18.095 6.55243H12.9786V5.0451H18.095V6.55243Z" fill="#4A60A1"/>
</svg>
