<svg width="20" height="21" viewBox="0 0 20 21" fill="none" xmlns="http://www.w3.org/2000/svg">
<g clip-path="url(#clip0_1_484)">
<path d="M0 3.31371C0 2.64029 0.225232 2.08474 0.675676 1.64704C1.12612 1.20933 1.71172 0.990479 2.43243 0.990479C3.14029 0.990479 3.71299 1.20595 4.15058 1.63694C4.60102 2.08139 4.82625 2.6605 4.82625 3.37431C4.82625 4.02078 4.60747 4.55948 4.16988 4.99047C3.71944 5.43492 3.12741 5.65714 2.39382 5.65714H2.37452C1.66666 5.65714 1.09396 5.43492 0.656371 4.99047C0.218784 4.54603 0 3.9871 0 3.31371ZM0.250965 20.9904V7.49552H4.53668V20.9904H0.250965ZM6.9112 20.9904H11.1969V13.4551C11.1969 12.9837 11.2484 12.6201 11.3514 12.3642C11.5315 11.9063 11.805 11.5191 12.1718 11.2026C12.5386 10.8861 12.9987 10.7278 13.5521 10.7278C14.9936 10.7278 15.7143 11.7447 15.7143 13.7783V20.9904H20V13.2531C20 11.2598 19.5496 9.74804 18.6486 8.71774C17.7477 7.68744 16.5573 7.17229 15.0772 7.17229C13.417 7.17229 12.1236 7.91976 11.1969 9.41471V9.45511H11.1776L11.1969 9.41471V7.49552H6.9112C6.93693 7.92649 6.94981 9.26655 6.94981 11.5157C6.94981 13.7649 6.93693 16.9231 6.9112 20.9904Z" fill="#4A60A1"/>
</g>
<defs>
<clipPath id="clip0_1_484">
<rect width="20" height="20" fill="white" transform="translate(0 0.990723)"/>
</clipPath>
</defs>
</svg>
