<svg width="20" height="21" viewBox="0 0 20 21" fill="none" xmlns="http://www.w3.org/2000/svg">
<g clip-path="url(#clip0_304_1348)">
<path d="M0 10.9812C0 9.16786 0.44668 7.49454 1.34 5.9612C2.23334 4.42786 3.44668 3.21454 4.98 2.3212C6.51334 1.42786 8.18668 0.981201 10 0.981201C11.8133 0.981201 13.4867 1.42786 15.02 2.3212C16.5533 3.21454 17.7667 4.42786 18.66 5.9612C19.5533 7.49454 20 9.16786 20 10.9812C20 12.7945 19.5533 14.4679 18.66 16.0012C17.7667 17.5345 16.5533 18.7479 15.02 19.6412C13.4867 20.5345 11.8133 20.9812 10 20.9812C8.18668 20.9812 6.51334 20.5345 4.98 19.6412C3.44668 18.7479 2.23334 17.5345 1.34 16.0012C0.44668 14.4679 0 12.7945 0 10.9812ZM1.66 10.9812C1.66 13.0612 2.36 14.8945 3.76 16.4812C4.4 15.2279 5.41334 14.0345 6.8 12.9012C8.18668 11.7679 9.54 11.0545 10.86 10.7612C10.66 10.2945 10.4667 9.87454 10.28 9.5012C7.98668 10.2345 5.50668 10.6012 2.84 10.6012C2.32 10.6012 1.93334 10.5945 1.68 10.5812C1.68 10.6345 1.67668 10.7012 1.67 10.7812C1.66334 10.8612 1.66 10.9279 1.66 10.9812ZM1.92 8.9212C2.21334 8.94786 2.64668 8.9612 3.22 8.9612C5.44668 8.9612 7.56 8.6612 9.56 8.0612C8.54668 6.2612 7.43334 4.7612 6.22 3.5612C5.16668 4.09454 4.26334 4.83454 3.51 5.7812C2.75668 6.72786 2.22668 7.77454 1.92 8.9212ZM4.9 17.5612C6.40668 18.7345 8.10668 19.3212 10 19.3212C10.9867 19.3212 11.9667 19.1345 12.94 18.7612C12.6733 16.4812 12.1533 14.2745 11.38 12.1412C10.1533 12.4079 8.91668 13.0812 7.67 14.1612C6.42334 15.2412 5.5 16.3745 4.9 17.5612ZM7.96 2.9212C9.13334 4.13454 10.22 5.64786 11.22 7.4612C13.0333 6.7012 14.4 5.73454 15.32 4.5612C13.7733 3.2812 12 2.6412 10 2.6412C9.32 2.6412 8.64 2.73454 7.96 2.9212ZM11.94 8.8812C12.14 9.30786 12.3667 9.84786 12.62 10.5012C13.6067 10.4079 14.68 10.3612 15.84 10.3612C16.6667 10.3612 17.4867 10.3812 18.3 10.4212C18.1933 8.60786 17.54 6.99454 16.34 5.5812C15.4733 6.87454 14.0067 7.97454 11.94 8.8812ZM13.12 11.9012C13.8 13.8745 14.26 15.9012 14.5 17.9812C15.5533 17.3012 16.4133 16.4279 17.08 15.3612C17.7467 14.2945 18.1467 13.1412 18.28 11.9012C17.3067 11.8345 16.42 11.8012 15.62 11.8012C14.8867 11.8012 14.0533 11.8345 13.12 11.9012Z" fill="#4A60A1"/>
</g>
<defs>
<clipPath id="clip0_304_1348">
<rect width="20" height="20" fill="white" transform="translate(0 0.981201)"/>
</clipPath>
</defs>
</svg>
